<?xml version="1.0" encoding="UTF-8"?>
<svg width="64" height="64" viewBox="0 0 64 64" xmlns="http://www.w3.org/2000/svg">
  <!-- 背景圆形 -->
  <circle cx="32" cy="32" r="30" fill="#2196F3" stroke="#1976D2" stroke-width="2"/>
  
  <!-- 鼠标图标 -->
  <g transform="translate(20, 16)">
    <!-- 鼠标主体 -->
    <rect x="6" y="8" width="12" height="20" rx="6" ry="6" fill="white" stroke="#333" stroke-width="1.5"/>
    
    <!-- 鼠标左键 -->
    <path d="M 6 8 Q 6 2 12 2 L 12 14 L 6 14 Q 6 8 6 8" fill="#f5f5f5" stroke="#333" stroke-width="1"/>
    
    <!-- 鼠标右键 -->
    <path d="M 12 2 Q 18 2 18 8 L 18 14 L 12 14 L 12 2" fill="#f5f5f5" stroke="#333" stroke-width="1"/>
    
    <!-- 滚轮 -->
    <rect x="11" y="6" width="2" height="4" rx="1" fill="#666"/>
  </g>
  
  <!-- 点击效果圆圈 -->
  <circle cx="32" cy="45" r="3" fill="none" stroke="#FFD700" stroke-width="2" opacity="0.8">
    <animate attributeName="r" values="3;8;3" dur="2s" repeatCount="indefinite"/>
    <animate attributeName="opacity" values="0.8;0.2;0.8" dur="2s" repeatCount="indefinite"/>
  </circle>
  
  <!-- 目标十字线 -->
  <g stroke="#FFD700" stroke-width="2" opacity="0.6">
    <line x1="28" y1="45" x2="36" y2="45"/>
    <line x1="32" y1="41" x2="32" y2="49"/>
  </g>
  
  <!-- 装饰性光点 -->
  <circle cx="45" cy="20" r="2" fill="#FFD700" opacity="0.7">
    <animate attributeName="opacity" values="0.7;0.3;0.7" dur="1.5s" repeatCount="indefinite"/>
  </circle>
  <circle cx="19" cy="50" r="1.5" fill="#FFD700" opacity="0.5">
    <animate attributeName="opacity" values="0.5;0.2;0.5" dur="2.2s" repeatCount="indefinite"/>
  </circle>
</svg>